<svg width="28" height="28" viewBox="0 0 28 28" fill="none" xmlns="http://www.w3.org/2000/svg">
<g clip-path="url(#clip0_179_354)">
<path d="M11.6668 7C11.6664 8.63341 12.0947 10.2383 12.9088 11.6544C13.723 13.0704 14.8945 14.248 16.3063 15.0695C17.7181 15.891 19.3208 16.3275 20.9542 16.3356C22.5876 16.3436 24.1945 15.9229 25.6143 15.1153C25.0532 21.035 20.0668 25.6667 14.0002 25.6667C7.55666 25.6667 2.3335 20.4435 2.3335 14C2.3335 7.93333 6.96516 2.947 12.8848 2.38583C12.084 3.79159 11.6641 5.38213 11.6668 7ZM4.66683 14C4.66683 16.4754 5.65016 18.8493 7.4005 20.5997C9.15084 22.35 11.5248 23.3333 14.0002 23.3333C15.6492 23.3332 17.2689 22.8966 18.6945 22.0677C20.12 21.2388 21.3008 20.0473 22.1167 18.6142C21.748 18.6492 21.3747 18.6667 21.0002 18.6667C14.5567 18.6667 9.3335 13.4435 9.3335 7C9.3335 6.6255 9.351 6.25333 9.386 5.8835C7.95291 6.69938 6.76138 7.88012 5.9325 9.30572C5.10361 10.7313 4.66693 12.3509 4.66683 14ZM21.1915 2.67283L22.1668 2.91667V4.08333L21.1915 4.32717C20.7813 4.42976 20.4067 4.64188 20.1077 4.94087C19.8087 5.23986 19.5966 5.61447 19.494 6.02467L19.2502 7H18.0835L17.8397 6.02467C17.7371 5.61447 17.525 5.23986 17.226 4.94087C16.927 4.64188 16.5524 4.42976 16.1422 4.32717L15.1668 4.08333V2.91667L16.1422 2.67283C16.5521 2.57006 16.9265 2.35785 17.2253 2.05888C17.5241 1.7599 17.736 1.38539 17.8385 0.975333L18.0835 0H19.2502L19.494 0.975333C19.5966 1.38553 19.8087 1.76015 20.1077 2.05913C20.4067 2.35812 20.7813 2.57025 21.1915 2.67283ZM27.0248 8.50617L28.0002 8.75V9.91667L27.0248 10.1605C26.6146 10.2631 26.24 10.4752 25.941 10.7742C25.642 11.0732 25.4299 11.4478 25.3273 11.858L25.0835 12.8333H23.9168L23.673 11.858C23.5704 11.4478 23.3583 11.0732 23.0593 10.7742C22.7603 10.4752 22.3857 10.2631 21.9755 10.1605L21.0002 9.91667V8.75L21.9755 8.50617C22.3857 8.40358 22.7603 8.19145 23.0593 7.89247C23.3583 7.59348 23.5704 7.21887 23.673 6.80867L23.9168 5.83333H25.0835L25.3273 6.80867C25.4299 7.21887 25.642 7.59348 25.941 7.89247C26.24 8.19145 26.6146 8.40358 27.0248 8.50617Z" fill="white"/>
</g>
<defs>
<clipPath id="clip0_179_354">
<rect width="28" height="28" fill="white"/>
</clipPath>
</defs>
</svg>
