<svg width="28" height="28" viewBox="0 0 28 28" fill="none" xmlns="http://www.w3.org/2000/svg">
<g clip-path="url(#clip0_179_353)">
<path d="M13.9998 21C12.1433 21 10.3628 20.2625 9.05009 18.9497C7.73734 17.637 6.99984 15.8565 6.99984 14C6.99984 12.1435 7.73734 10.363 9.05009 9.05024C10.3628 7.73749 12.1433 6.99999 13.9998 6.99999C15.8564 6.99999 17.6368 7.73749 18.9496 9.05024C20.2623 10.363 20.9998 12.1435 20.9998 14C20.9998 15.8565 20.2623 17.637 18.9496 18.9497C17.6368 20.2625 15.8564 21 13.9998 21ZM13.9998 18.6667C15.2375 18.6667 16.4245 18.175 17.2997 17.2998C18.1748 16.4247 18.6665 15.2377 18.6665 14C18.6665 12.7623 18.1748 11.5753 17.2997 10.7002C16.4245 9.82499 15.2375 9.33332 13.9998 9.33332C12.7622 9.33332 11.5752 9.82499 10.7 10.7002C9.82484 11.5753 9.33317 12.7623 9.33317 14C9.33317 15.2377 9.82484 16.4247 10.7 17.2998C11.5752 18.175 12.7622 18.6667 13.9998 18.6667ZM12.8332 1.16666H15.1665V4.66666H12.8332V1.16666ZM12.8332 23.3333H15.1665V26.8333H12.8332V23.3333ZM4.10067 5.75049L5.75034 4.10082L8.22484 6.57532L6.57517 8.22499L4.10067 5.75166V5.75049ZM19.7748 21.4247L21.4245 19.775L23.899 22.2495L22.2493 23.8992L19.7748 21.4247ZM22.2493 4.09966L23.899 5.75049L21.4245 8.22499L19.7748 6.57532L22.2493 4.10082V4.09966ZM6.57517 19.775L8.22484 21.4247L5.75034 23.8992L4.10067 22.2495L6.57517 19.775ZM26.8332 12.8333V15.1667H23.3332V12.8333H26.8332ZM4.6665 12.8333V15.1667H1.1665V12.8333H4.6665Z" fill="white"/>
</g>
<defs>
<clipPath id="clip0_179_353">
<rect width="28" height="28" fill="white"/>
</clipPath>
</defs>
</svg>
