<svg width="93" height="93" viewBox="0 0 93 93" fill="none" xmlns="http://www.w3.org/2000/svg">
<circle cx="46.5" cy="46.5" r="45.5" stroke="white" stroke-width="2"/>
<path d="M32.6733 36.4452V62.3235C32.6733 64.9221 34.7799 67.0286 37.3785 67.0286H56.7024C59.301 67.0286 61.4075 64.9221 61.4075 62.3235V36.4452M32.6733 36.4452H30.2788M32.6733 36.4452H37.4624M61.4075 36.4452H63.8021M61.4075 36.4452H56.6185M42.2514 45.8555V57.6183M51.8295 45.8555V57.6183M37.4624 36.4452V31.7401C37.4624 29.1415 39.5689 27.0349 42.1675 27.0349H51.9134C54.5119 27.0349 56.6185 29.1415 56.6185 31.7401V36.4452M37.4624 36.4452H56.6185" stroke="white" stroke-width="2" stroke-linecap="round" stroke-linejoin="round"/>
</svg>
