<svg width="28" height="28" viewBox="0 0 28 28" fill="none" xmlns="http://www.w3.org/2000/svg">
<g clip-path="url(#clip0_119_538)">
<path d="M14.0001 21C12.1436 21 10.3631 20.2625 9.05033 18.9498C7.73758 17.637 7.00008 15.8565 7.00008 14C7.00008 12.1435 7.73758 10.363 9.05033 9.05026C10.3631 7.7375 12.1436 7.00001 14.0001 7.00001C15.8566 7.00001 17.6371 7.7375 18.9498 9.05026C20.2626 10.363 21.0001 12.1435 21.0001 14C21.0001 15.8565 20.2626 17.637 18.9498 18.9498C17.6371 20.2625 15.8566 21 14.0001 21ZM14.0001 18.6667C15.2378 18.6667 16.4247 18.175 17.2999 17.2998C18.1751 16.4247 18.6667 15.2377 18.6667 14C18.6667 12.7623 18.1751 11.5753 17.2999 10.7002C16.4247 9.825 15.2378 9.33334 14.0001 9.33334C12.7624 9.33334 11.5754 9.825 10.7003 10.7002C9.82508 11.5753 9.33342 12.7623 9.33342 14C9.33342 15.2377 9.82508 16.4247 10.7003 17.2998C11.5754 18.175 12.7624 18.6667 14.0001 18.6667ZM12.8334 1.16667H15.1667V4.66667H12.8334V1.16667ZM12.8334 23.3333H15.1667V26.8333H12.8334V23.3333ZM4.10091 5.75051L5.75058 4.10084L8.22508 6.57534L6.57542 8.22501L4.10091 5.75167V5.75051ZM19.7751 21.4247L21.4247 19.775L23.8993 22.2495L22.2496 23.8992L19.7751 21.4247ZM22.2496 4.09967L23.8993 5.75051L21.4247 8.22501L19.7751 6.57534L22.2496 4.10084V4.09967ZM6.57542 19.775L8.22508 21.4247L5.75058 23.8992L4.10091 22.2495L6.57542 19.775ZM26.8334 12.8333V15.1667H23.3334V12.8333H26.8334ZM4.66675 12.8333V15.1667H1.16675V12.8333H4.66675Z" fill="#09121F"/>
</g>
<defs>
<clipPath id="clip0_119_538">
<rect width="28" height="28" fill="white"/>
</clipPath>
</defs>
</svg>
