<svg width="65" height="47" viewBox="0 0 65 47" fill="none" xmlns="http://www.w3.org/2000/svg">
<path d="M2.075 18V0.499999H6.125V14.7H14.9V18H2.075ZM23.2643 18.2C21.831 18.2 20.556 17.9 19.4393 17.3C18.3393 16.7 17.4643 15.8833 16.8143 14.85C16.181 13.8 15.8643 12.6083 15.8643 11.275C15.8643 9.925 16.181 8.73333 16.8143 7.7C17.4643 6.65 18.3393 5.83333 19.4393 5.25C20.556 4.65 21.831 4.35 23.2643 4.35C24.681 4.35 25.9476 4.65 27.0643 5.25C28.181 5.83333 29.056 6.64167 29.6893 7.675C30.3226 8.70833 30.6393 9.90833 30.6393 11.275C30.6393 12.6083 30.3226 13.8 29.6893 14.85C29.056 15.8833 28.181 16.7 27.0643 17.3C25.9476 17.9 24.681 18.2 23.2643 18.2ZM23.2643 15C23.9143 15 24.4976 14.85 25.0143 14.55C25.531 14.25 25.9393 13.825 26.2393 13.275C26.5393 12.7083 26.6893 12.0417 26.6893 11.275C26.6893 10.4917 26.5393 9.825 26.2393 9.275C25.9393 8.725 25.531 8.3 25.0143 8C24.4976 7.7 23.9143 7.55 23.2643 7.55C22.6143 7.55 22.031 7.7 21.5143 8C20.9976 8.3 20.581 8.725 20.2643 9.275C19.9643 9.825 19.8143 10.4917 19.8143 11.275C19.8143 12.0417 19.9643 12.7083 20.2643 13.275C20.581 13.825 20.9976 14.25 21.5143 14.55C22.031 14.85 22.6143 15 23.2643 15ZM39.6452 23.05C38.3785 23.05 37.1535 22.8917 35.9702 22.575C34.8035 22.275 33.8285 21.8167 33.0452 21.2L34.5952 18.4C35.1618 18.8667 35.8785 19.2333 36.7452 19.5C37.6285 19.7833 38.4952 19.925 39.3452 19.925C40.7285 19.925 41.7285 19.6167 42.3452 19C42.9785 18.3833 43.2952 17.4667 43.2952 16.25V14.225L43.5452 10.85L43.4952 7.45V4.55H47.1952V15.75C47.1952 18.25 46.5452 20.0917 45.2452 21.275C43.9452 22.4583 42.0785 23.05 39.6452 23.05ZM39.0452 17.35C37.7952 17.35 36.6618 17.0833 35.6452 16.55C34.6452 16 33.8368 15.2417 33.2202 14.275C32.6202 13.2917 32.3202 12.15 32.3202 10.85C32.3202 9.53333 32.6202 8.39167 33.2202 7.425C33.8368 6.44167 34.6452 5.68333 35.6452 5.15C36.6618 4.61667 37.7952 4.35 39.0452 4.35C40.1785 4.35 41.1785 4.58333 42.0452 5.05C42.9118 5.5 43.5868 6.20833 44.0702 7.175C44.5535 8.125 44.7952 9.35 44.7952 10.85C44.7952 12.3333 44.5535 13.5583 44.0702 14.525C43.5868 15.475 42.9118 16.1833 42.0452 16.65C41.1785 17.1167 40.1785 17.35 39.0452 17.35ZM39.8202 14.15C40.5035 14.15 41.1118 14.0167 41.6452 13.75C42.1785 13.4667 42.5952 13.075 42.8952 12.575C43.1952 12.075 43.3452 11.5 43.3452 10.85C43.3452 10.1833 43.1952 9.60833 42.8952 9.125C42.5952 8.625 42.1785 8.24167 41.6452 7.975C41.1118 7.69167 40.5035 7.55 39.8202 7.55C39.1368 7.55 38.5285 7.69167 37.9952 7.975C37.4618 8.24167 37.0368 8.625 36.7202 9.125C36.4202 9.60833 36.2702 10.1833 36.2702 10.85C36.2702 11.5 36.4202 12.075 36.7202 12.575C37.0368 13.075 37.4618 13.4667 37.9952 13.75C38.5285 14.0167 39.1368 14.15 39.8202 14.15ZM57.2991 18.2C55.8658 18.2 54.5908 17.9 53.4741 17.3C52.3741 16.7 51.4991 15.8833 50.8491 14.85C50.2158 13.8 49.8991 12.6083 49.8991 11.275C49.8991 9.925 50.2158 8.73333 50.8491 7.7C51.4991 6.65 52.3741 5.83333 53.4741 5.25C54.5908 4.65 55.8658 4.35 57.2991 4.35C58.7158 4.35 59.9825 4.65 61.0991 5.25C62.2158 5.83333 63.0908 6.64167 63.7241 7.675C64.3575 8.70833 64.6741 9.90833 64.6741 11.275C64.6741 12.6083 64.3575 13.8 63.7241 14.85C63.0908 15.8833 62.2158 16.7 61.0991 17.3C59.9825 17.9 58.7158 18.2 57.2991 18.2ZM57.2991 15C57.9491 15 58.5325 14.85 59.0491 14.55C59.5658 14.25 59.9741 13.825 60.2741 13.275C60.5741 12.7083 60.7241 12.0417 60.7241 11.275C60.7241 10.4917 60.5741 9.825 60.2741 9.275C59.9741 8.725 59.5658 8.3 59.0491 8C58.5325 7.7 57.9491 7.55 57.2991 7.55C56.6491 7.55 56.0658 7.7 55.5491 8C55.0325 8.3 54.6158 8.725 54.2991 9.275C53.9991 9.825 53.8491 10.4917 53.8491 11.275C53.8491 12.0417 53.9991 12.7083 54.2991 13.275C54.6158 13.825 55.0325 14.25 55.5491 14.55C56.0658 14.85 56.6491 15 57.2991 15Z" fill="#E203B7"/>
<path d="M7.3 41.2C5.71667 41.2 4.48333 40.8 3.6 40C2.71667 39.1833 2.275 37.975 2.275 36.375V24.575H6.175V36.325C6.175 36.8917 6.325 37.3333 6.625 37.65C6.925 37.95 7.33333 38.1 7.85 38.1C8.46667 38.1 8.99167 37.9333 9.425 37.6L10.475 40.35C10.075 40.6333 9.59167 40.85 9.025 41C8.475 41.1333 7.9 41.2 7.3 41.2ZM0.2 30.85V27.85H9.525V30.85H0.2ZM14.1942 46.05C13.4942 46.05 12.8025 45.9417 12.1192 45.725C11.4358 45.5083 10.8775 45.2083 10.4442 44.825L11.8692 42.05C12.1692 42.3167 12.5108 42.525 12.8942 42.675C13.2942 42.825 13.6858 42.9 14.0692 42.9C14.6192 42.9 15.0525 42.7667 15.3692 42.5C15.7025 42.25 16.0025 41.825 16.2692 41.225L16.9692 39.575L17.2692 39.15L22.0942 27.55H25.8442L19.7692 41.825C19.3358 42.9083 18.8358 43.7583 18.2692 44.375C17.7192 44.9917 17.1025 45.425 16.4192 45.675C15.7525 45.925 15.0108 46.05 14.1942 46.05ZM16.4942 41.525L10.4942 27.55H14.5192L19.1692 38.8L16.4942 41.525ZM35.4596 41.2C34.3263 41.2 33.3346 40.95 32.4846 40.45C31.6346 39.95 30.968 39.1917 30.4846 38.175C30.018 37.1417 29.7846 35.8417 29.7846 34.275C29.7846 32.6917 30.0096 31.3917 30.4596 30.375C30.9096 29.3583 31.5596 28.6 32.4096 28.1C33.2596 27.6 34.2763 27.35 35.4596 27.35C36.7263 27.35 37.8596 27.6417 38.8596 28.225C39.8763 28.7917 40.6763 29.5917 41.2596 30.625C41.8596 31.6583 42.1596 32.875 42.1596 34.275C42.1596 35.6917 41.8596 36.9167 41.2596 37.95C40.6763 38.9833 39.8763 39.7833 38.8596 40.35C37.8596 40.9167 36.7263 41.2 35.4596 41.2ZM27.5096 45.85V27.55H31.2346V30.3L31.1596 34.3L31.4096 38.275V45.85H27.5096ZM34.7846 38C35.4346 38 36.0096 37.85 36.5096 37.55C37.0263 37.25 37.4346 36.825 37.7346 36.275C38.0513 35.7083 38.2096 35.0417 38.2096 34.275C38.2096 33.4917 38.0513 32.825 37.7346 32.275C37.4346 31.725 37.0263 31.3 36.5096 31C36.0096 30.7 35.4346 30.55 34.7846 30.55C34.1346 30.55 33.5513 30.7 33.0346 31C32.518 31.3 32.1096 31.725 31.8096 32.275C31.5096 32.825 31.3596 33.4917 31.3596 34.275C31.3596 35.0417 31.5096 35.7083 31.8096 36.275C32.1096 36.825 32.518 37.25 33.0346 37.55C33.5513 37.85 34.1346 38 34.7846 38ZM51.5194 41.2C49.9861 41.2 48.6361 40.9 47.4694 40.3C46.3194 39.7 45.4278 38.8833 44.7944 37.85C44.1611 36.8 43.8444 35.6083 43.8444 34.275C43.8444 32.925 44.1528 31.7333 44.7694 30.7C45.4028 29.65 46.2611 28.8333 47.3444 28.25C48.4278 27.65 49.6528 27.35 51.0194 27.35C52.3361 27.35 53.5194 27.6333 54.5694 28.2C55.6361 28.75 56.4778 29.55 57.0944 30.6C57.7111 31.6333 58.0194 32.875 58.0194 34.325C58.0194 34.475 58.0111 34.65 57.9944 34.85C57.9778 35.0333 57.9611 35.2083 57.9444 35.375H47.0194V33.1H55.8944L54.3944 33.775C54.3944 33.075 54.2528 32.4667 53.9694 31.95C53.6861 31.4333 53.2944 31.0333 52.7944 30.75C52.2944 30.45 51.7111 30.3 51.0444 30.3C50.3778 30.3 49.7861 30.45 49.2694 30.75C48.7694 31.0333 48.3778 31.4417 48.0944 31.975C47.8111 32.4917 47.6694 33.1083 47.6694 33.825V34.425C47.6694 35.1583 47.8278 35.8083 48.1444 36.375C48.4778 36.925 48.9361 37.35 49.5194 37.65C50.1194 37.9333 50.8194 38.075 51.6194 38.075C52.3361 38.075 52.9611 37.9667 53.4944 37.75C54.0444 37.5333 54.5444 37.2083 54.9944 36.775L57.0694 39.025C56.4528 39.725 55.6778 40.2667 54.7444 40.65C53.8111 41.0167 52.7361 41.2 51.5194 41.2Z" fill="#0348E2"/>
</svg>
