<svg width="136" height="136" viewBox="0 0 136 136" fill="none" xmlns="http://www.w3.org/2000/svg">
<g id="SmileySad">
<path id="Vector" d="M68 119C96.1665 119 119 96.1665 119 68C119 39.8335 96.1665 17 68 17C39.8335 17 17 39.8335 17 68C17 96.1665 39.8335 119 68 119Z" stroke="#E32B16" stroke-width="2" stroke-miterlimit="10"/>
<path id="Vector_2" d="M90.0881 93.4994C87.8477 89.6244 84.6274 86.4069 80.7503 84.1701C76.8732 81.9332 72.4759 80.7556 67.9999 80.7556C63.5238 80.7555 59.1265 81.933 55.2494 84.1698C51.3723 86.4066 48.1518 89.624 45.9114 93.499" stroke="#E32B16" stroke-width="2" stroke-linecap="round" stroke-linejoin="round"/>
<path id="Vector_3" d="M48.5 58C50.433 58 52 56.433 52 54.5C52 52.567 50.433 51 48.5 51C46.567 51 45 52.567 45 54.5C45 56.433 46.567 58 48.5 58Z" fill="#E32B16"/>
<path id="Vector_4" d="M86.75 58C88.683 58 90.25 56.433 90.25 54.5C90.25 52.567 88.683 51 86.75 51C84.817 51 83.25 52.567 83.25 54.5C83.25 56.433 84.817 58 86.75 58Z" fill="#E32B16"/>
</g>
</svg>
