<svg width="28" height="28" viewBox="0 0 28 28" fill="none" xmlns="http://www.w3.org/2000/svg">
<g clip-path="url(#clip0_119_539)">
<path d="M11.6666 7C11.6662 8.63341 12.0944 10.2383 12.9086 11.6544C13.7227 13.0704 14.8942 14.248 16.3061 15.0695C17.7179 15.891 19.3206 16.3275 20.954 16.3356C22.5873 16.3436 24.1942 15.9229 25.6141 15.1153C25.0529 21.035 20.0666 25.6667 13.9999 25.6667C7.55642 25.6667 2.33325 20.4435 2.33325 14C2.33325 7.93333 6.96492 2.947 12.8846 2.38583C12.0837 3.79159 11.6639 5.38213 11.6666 7ZM4.66659 14C4.66659 16.4754 5.64992 18.8493 7.40026 20.5997C9.1506 22.35 11.5246 23.3333 13.9999 23.3333C15.649 23.3332 17.2686 22.8966 18.6942 22.0677C20.1198 21.2388 21.3005 20.0473 22.1164 18.6142C21.7478 18.6492 21.3744 18.6667 20.9999 18.6667C14.5564 18.6667 9.33325 13.4435 9.33325 7C9.33325 6.6255 9.35075 6.25333 9.38575 5.8835C7.95267 6.69938 6.76113 7.88012 5.93225 9.30572C5.10337 10.7313 4.66668 12.3509 4.66659 14ZM21.1913 2.67283L22.1666 2.91667V4.08333L21.1913 4.32717C20.7811 4.42976 20.4064 4.64188 20.1075 4.94087C19.8085 5.23986 19.5963 5.61447 19.4938 6.02467L19.2499 7H18.0833L17.8394 6.02467C17.7368 5.61447 17.5247 5.23986 17.2257 4.94087C16.9267 4.64188 16.5521 4.42976 16.1419 4.32717L15.1666 4.08333V2.91667L16.1419 2.67283C16.5519 2.57006 16.9263 2.35785 17.225 2.05888C17.5238 1.7599 17.7358 1.38539 17.8383 0.975333L18.0833 0H19.2499L19.4938 0.975333C19.5963 1.38553 19.8085 1.76015 20.1075 2.05913C20.4064 2.35812 20.7811 2.57025 21.1913 2.67283ZM27.0246 8.50617L27.9999 8.75V9.91667L27.0246 10.1605C26.6144 10.2631 26.2398 10.4752 25.9408 10.7742C25.6418 11.0732 25.4297 11.4478 25.3271 11.858L25.0833 12.8333H23.9166L23.6728 11.858C23.5702 11.4478 23.358 11.0732 23.0591 10.7742C22.7601 10.4752 22.3855 10.2631 21.9753 10.1605L20.9999 9.91667V8.75L21.9753 8.50617C22.3855 8.40358 22.7601 8.19145 23.0591 7.89247C23.358 7.59348 23.5702 7.21887 23.6728 6.80867L23.9166 5.83333H25.0833L25.3271 6.80867C25.4297 7.21887 25.6418 7.59348 25.9408 7.89247C26.2398 8.19145 26.6144 8.40358 27.0246 8.50617Z" fill="#09121F"/>
</g>
<defs>
<clipPath id="clip0_119_539">
<rect width="28" height="28" fill="white"/>
</clipPath>
</defs>
</svg>
